{"title":"BEN 10 Ultimate alien Dual Audio {ENG-Hindi}","uid":8637366,"size":207826131,"categoryP":"video","categoryS":"tv_shows","magnet":"?xt=urn:btih:14da27494a4667f2be04d0152d833ac05af1126f&amp;dn=BEN+10+Ultimate+alien+Dual+Audio+%7BENG-Hindi%7D&amp;tr=udp%3A%2F%2Ftracker.openbittorrent.com%3A80&amp;tr=udp%3A%2F%2Fopen.demonii.com%3A1337&amp;tr=udp%3A%2F%2Ftracker.coppersurfer.tk%3A6969&amp;tr=udp%3A%2F%2Fexodus.desync.com%3A6969","seeders":1,"leechers":0,"uploader":"mettleedge","files":1,"time":1372793759,"description":"Info\nGeneral \n\nFormat : Matroska \nFormat version : Version 4 / Version 2 \nFile size : 198 MiB \nDuration : 22mn 30s \nOverall bit rate : 1 231 Kbps \nEncoded date : UTC 2013-06-30 14:41:42 \nWriting application : mkvmerge v6.3.0 ('You can't stop me!') built on Jun 28 2013 20:09:41 \nWriting library : Lavf52.82.0 \n\nVideo \nID : 1 \nFormat : MPEG-4 Visual \nFormat profile : Simple@L1 \nFormat settings, BVOP : No \nFormat settings, QPel : No \nFormat settings, GMC : No warppoints \nFormat settings, Matrix : Default (H.263) \nCodec ID : V_MPEG4/ISO/ASP \nCodec ID/Info : Advanced Simple Profile \nBit rate : 950 Kbps \nWidth : 640 pixels \nHeight : 480 pixels \nDisplay aspect ratio : 4:3 \nFrame rate mode : Variable \nColor space : YUV \nChroma subsampling : 4:2:0 \nBit depth : 8 bits \nScan type : Progressive \nCompression mode : Lossy \nDefault : Yes \nForced : No \n\nAudio #1 \nID : 2 \nFormat : MPEG Audio \nFormat version : Version 1 \nFormat profile : Layer 3 \nMode : Joint stereo \nMode extension : MS Stereo \nCodec ID : A_MPEG/L3 \nCodec ID/Hint : MP3 \nDuration : 22mn 30s \nBit rate mode : Constant \nBit rate : 128 Kbps \nChannel(s) : 2 channels \nSampling rate : 44.1 KHz \nCompression mode : Lossy \nStream size : 20.6 MiB (10%) \nDefault : Yes \nForced : No \n\nAudio #2 \nID : 3 \nFormat : MPEG Audio \nFormat version : Version 1 \nFormat profile : Layer 3 \nMode : Joint stereo \nMode extension : MS Stereo \nCodec ID : A_MPEG/L3 \nCodec ID/Hint : MP3 \nDuration : 22mn 30s \nBit rate mode : Constant \nBit rate : 128 Kbps \nChannel(s) : 2 channels \nSampling rate : 44.1 KHz \nCompression mode : Lossy \nStream size : 20.6 MiB (10%) \nDefault : No \nForced : No \n\n\nScreens\n[img]http://nimga.com/m/OJx0D.png[/img]\n\n[img]http://nimga.com/m/xHBpH.png[/img]\n\n[img]http://nimga.com/m/2DZks.png[/img]\n\n[img]http://nimga.com/m/jZVAj.png[/img]\n\n[img]http://nimga.com/m/fYMG1.png[/img]\n\n[img]http://nimga.com/m/rYZbL.png[/img]\n\n[img]http://nimga.com/m/cnyfX.png[/img]\n\n","torrent":{"xt":"urn:btih:14da27494a4667f2be04d0152d833ac05af1126f","amp;dn":"BEN+10+Ultimate+alien+Dual+Audio+%7BENG-Hindi%7D","amp;tr":["udp%3A%2F%2Ftracker.openbittorrent.com%3A80","udp%3A%2F%2Fopen.demonii.com%3A1337","udp%3A%2F%2Ftracker.coppersurfer.tk%3A6969","udp%3A%2F%2Fexodus.desync.com%3A6969"],"infoHash":"14da27494a4667f2be04d0152d833ac05af1126f","infoHashBuffer":{"type":"Buffer","data":[20,218,39,73,74,70,103,242,190,4,208,21,45,131,58,192,90,241,18,111]},"announce":[],"urlList":[]}}